# xmcd
#
# Track frame offsets:
#	150
#	17645
#	35267
#	56337
#	75220
#	94035
#	113097
#	129237
#	145432
#	162032
#
# Disc length: 2453 seconds
#
# Revision: 1
# Processed by: cddbd v1.5.2PL0 Copyright (c) Steve Scherf et al.
# Submitted via: EasyCDDAExtractor 15.3.0.1
#
DISCID=6b09930a
DTITLE=Ednita Nazario - Latin Classics
DYEAR=2003
DGENRE=Latin
TTITLE0=Un Corazon Hecho Pedazos
TTITLE1=Eres Libre
TTITLE2=Lo Que Son Las Cosas
TTITLE3=Tres Deseos
TTITLE4=Te Sigo Esperando
TTITLE5=Como Antes
TTITLE6=No Voy A Llorar
TTITLE7=Perdiendo Tu Amor
TTITLE8=Lloviendo Flores
TTITLE9=Mas Grande Que Grande
EXTD=YEAR: 2003 ID3G: 86
EXTT0=
EXTT1=
EXTT2=
EXTT3=
EXTT4=
EXTT5=
EXTT6=
EXTT7=
EXTT8=
EXTT9=
PLAYORDER=
